<?xml version="1.0" standalone="no"?>
<!DOCTYPE svg PUBLIC "-//W3C//DTD SVG 20010904//EN"
 "http://www.w3.org/TR/2001/REC-SVG-20010904/DTD/svg10.dtd">
<svg version="1.0" xmlns="http://www.w3.org/2000/svg"
 width="855.000000pt" height="954.000000pt" viewBox="0 0 855.000000 954.000000"
 preserveAspectRatio="xMidYMid meet">

<g transform="translate(0.000000,954.000000) scale(0.100000,-0.100000)"
fill="#000000" stroke="none">
<path d="M2885 7040 c-95 -25 -138 -44 -217 -96 -122 -81 -213 -202 -264 -349
-25 -73 -28 -97 -33 -265 l-6 -185 -455 -5 -455 -5 -67 -33 c-83 -40 -148
-104 -185 -180 l-28 -57 0 -1390 0 -1390 27 -57 c53 -114 165 -195 299 -218
45 -7 685 -10 2189 -8 l2125 3 218 410 c235 442 259 479 361 528 28 14 59 27
69 31 16 5 17 58 15 1043 l-3 1038 -29 62 c-35 76 -113 153 -193 191 l-58 27
-455 5 -455 5 -6 185 c-7 207 -15 245 -82 373 -73 142 -206 257 -371 321 l-81
31 -895 2 c-847 2 -899 1 -965 -17z m1798 -519 c62 -38 75 -76 78 -236 l3
-140 -939 0 -940 0 -3 120 c-4 171 17 227 102 266 39 18 78 19 851 16 l810 -2
38 -24z m-678 -906 c244 -39 459 -149 635 -325 175 -176 286 -390 325 -631
101 -626 -322 -1216 -950 -1325 -133 -24 -348 -15 -477 19 -411 108 -723 420
-836 835 -24 89 -26 113 -26 287 0 175 2 198 27 289 107 397 413 709 803 821
162 46 336 57 499 30z"/>
<path d="M3690 4970 l0 -360 -360 0 -360 0 0 -135 0 -135 360 0 360 0 0 -360
0 -360 135 0 135 0 0 360 0 360 360 0 360 0 0 135 0 135 -360 0 -360 0 0 360
0 360 -135 0 -135 0 0 -360z"/>
<path d="M7295 3987 c-117 -30 -223 -117 -273 -225 l-27 -57 -3 -494 -3 -493
33 6 c194 35 509 35 726 0 l43 -7 -3 484 c-3 468 -4 486 -24 536 -46 110 -139
201 -243 238 -62 21 -167 27 -226 12z"/>
<path d="M7205 2701 c-44 -4 -107 -11 -139 -15 l-60 -8 55 -31 c30 -17 93 -69
140 -116 66 -66 95 -104 122 -161 121 -248 97 -510 -67 -727 -26 -35 -69 -80
-96 -100 -27 -21 -49 -41 -50 -45 0 -14 93 -70 148 -90 89 -31 218 -23 304 20
81 40 149 111 191 200 l32 67 3 487 3 487 -23 6 c-117 26 -416 40 -563 26z"/>
<path d="M4070 1785 l0 -105 65 0 65 0 0 105 0 105 -65 0 -65 0 0 -105z"/>
<path d="M4288 1498 c-3 -283 -5 -316 -21 -340 -32 -46 -111 -62 -168 -32 -52
26 -59 60 -59 284 l0 200 -70 0 -70 0 0 -220 c0 -244 5 -268 62 -327 88 -90
323 -87 411 5 53 55 57 87 57 428 l0 314 -69 0 -70 0 -3 -312z"/>
<path d="M2877 1609 c-48 -11 -147 -58 -147 -69 0 -5 9 -28 19 -53 l19 -44 59
29 c68 33 154 46 204 29 38 -12 69 -55 69 -94 0 -24 -1 -25 -117 -30 -137 -6
-181 -17 -227 -57 -84 -74 -67 -230 30 -291 41 -25 148 -37 204 -22 31 9 35
13 33 42 0 17 -4 43 -7 57 -5 20 -10 23 -26 14 -28 -15 -92 -12 -117 5 -27 19
-38 67 -23 95 18 34 71 50 165 50 l85 0 0 -130 0 -130 70 0 70 0 0 211 c0 138
-4 226 -12 253 -16 53 -73 109 -133 130 -52 17 -155 20 -218 5z"/>
<path d="M3407 1596 c-95 -34 -99 -38 -82 -87 21 -60 21 -60 80 -33 75 35 157
37 188 6 21 -22 22 -30 25 -247 l3 -225 76 0 75 0 -4 223 c-3 197 -6 227 -24
267 -52 113 -182 150 -337 96z"/>
<path d="M4625 1606 c-22 -7 -55 -21 -74 -30 -35 -19 -37 -33 -12 -98 l10 -27
50 25 c64 34 159 37 198 7 59 -43 68 -67 68 -171 0 -112 -17 -155 -75 -185
-44 -23 -127 -18 -194 12 l-47 20 -10 -27 c-6 -15 -13 -41 -16 -58 -5 -31 -3
-32 53 -54 84 -31 210 -31 282 0 104 45 156 143 155 295 0 200 -101 306 -287
304 -34 0 -79 -6 -101 -13z"/>
<path d="M5206 1610 c-42 -13 -95 -68 -102 -108 -9 -49 11 -106 51 -140 l34
-30 -25 -17 c-114 -74 -64 -267 79 -306 24 -6 83 -9 137 -7 104 5 142 18 198
71 53 50 62 101 62 334 l0 203 -75 0 -75 0 0 -205 c0 -230 -5 -251 -64 -279
-101 -48 -212 18 -176 105 14 32 53 49 116 49 l42 0 -5 43 c-7 67 -8 67 -65
67 -62 0 -98 20 -98 55 0 42 27 58 86 52 51 -5 52 -5 58 25 14 68 10 75 -44
87 -59 13 -93 13 -134 1z"/>
</g>
</svg>
