<?xml version="1.0" standalone="no"?>
<!DOCTYPE svg PUBLIC "-//W3C//DTD SVG 20010904//EN"
 "http://www.w3.org/TR/2001/REC-SVG-20010904/DTD/svg10.dtd">
<svg version="1.0" xmlns="http://www.w3.org/2000/svg"
 width="878.000000pt" height="979.000000pt" viewBox="0 0 878.000000 979.000000"
 preserveAspectRatio="xMidYMid meet">

<g transform="translate(0.000000,979.000000) scale(0.100000,-0.100000)"
fill="#000000" stroke="none">
<path d="M4382 6950 c-293 -169 -537 -311 -542 -316 -5 -5 224 -143 533 -322
l542 -312 3 175 c2 151 5 175 18 175 9 0 60 -9 114 -20 312 -64 604 -235 807
-473 89 -103 133 -171 197 -297 80 -157 124 -300 147 -475 14 -111 7 -329 -16
-443 -126 -643 -672 -1126 -1320 -1170 l-100 -7 -3 -267 -2 -268 55 0 c246 0
574 81 822 204 1082 536 1444 1888 772 2887 -288 429 -744 735 -1244 834 -66
13 -148 26 -182 30 l-63 7 -2 183 -3 183 -533 -308z"/>
<path d="M3490 6873 c-473 -72 -917 -319 -1217 -677 -450 -536 -589 -1248
-371 -1903 237 -715 855 -1232 1601 -1339 l127 -18 0 -182 0 -182 540 311
c296 172 536 315 532 319 -9 9 -1062 618 -1068 618 -2 0 -4 -79 -4 -175 l0
-176 -37 7 c-194 33 -297 65 -448 138 -410 200 -703 588 -791 1046 -27 140
-24 390 5 530 42 196 115 373 223 535 68 102 244 285 345 357 229 165 485 259
746 275 l107 6 0 264 0 263 -97 -1 c-54 -1 -141 -8 -193 -16z"/>
<path d="M3713 5835 c-187 -51 -336 -204 -432 -447 -34 -83 -85 -267 -78 -274
3 -3 106 13 230 35 124 23 228 41 231 41 3 0 6 14 6 30 0 35 23 96 46 122 41
44 119 29 155 -29 18 -29 21 -45 17 -97 -3 -34 -14 -80 -24 -102 -26 -57 -109
-132 -208 -189 -47 -28 -127 -74 -178 -104 -212 -124 -357 -255 -426 -388 -63
-122 -83 -204 -89 -375 l-6 -147 64 5 c35 2 284 16 554 30 269 13 490 26 492
27 6 7 55 458 50 463 -6 6 -441 -18 -586 -32 l-63 -7 16 26 c26 39 119 98 276
177 193 96 290 162 386 262 212 221 265 459 152 688 -40 81 -150 193 -234 237
-115 61 -240 78 -351 48z"/>
<path d="M4806 5784 c-121 -19 -223 -39 -226 -44 -4 -6 -82 -281 -174 -611
l-168 -601 48 -104 c57 -120 31 -111 245 -90 276 28 299 29 299 14 0 -7 -15
-102 -34 -210 -18 -109 -32 -198 -32 -198 1 0 88 22 194 49 106 27 196 51 198
54 3 3 14 74 25 158 10 85 21 160 24 167 3 8 28 12 78 12 l73 0 23 218 c12
119 25 225 27 235 5 15 -2 17 -55 17 -37 0 -61 4 -61 11 0 17 89 410 135 599
24 96 41 177 39 179 -4 5 -414 -65 -420 -72 -2 -2 -32 -170 -66 -374 l-63
-370 -104 -7 c-57 -4 -105 -5 -107 -4 -8 8 232 702 317 916 16 40 29 77 29 82
0 12 18 14 -244 -26z"/>
<path d="M1523 1935 c-63 -27 -92 -115 -57 -175 47 -79 178 -80 219 0 33 64 5
149 -60 176 -42 17 -61 17 -102 -1z m85 -91 c21 -38 -21 -80 -53 -54 -15 13
-20 51 -8 63 12 13 52 7 61 -9z"/>
<path d="M4540 1820 l0 -111 68 3 67 3 3 108 3 107 -71 0 -70 0 0 -110z"/>
<path d="M1352 1630 c-24 -11 -57 -29 -73 -41 -30 -21 -34 -19 -41 26 -3 17
-12 20 -71 23 l-67 3 0 -311 0 -310 75 0 75 0 0 214 0 214 33 28 c44 37 88 54
141 54 77 0 80 -12 84 -282 l3 -228 76 0 75 0 -4 238 c-4 253 -10 285 -61 341
-50 53 -164 68 -245 31z"/>
<path d="M1821 1630 c-29 -11 -64 -26 -77 -35 -22 -14 -23 -16 -8 -60 9 -25
20 -47 24 -50 4 -3 32 6 62 20 56 26 143 34 178 15 33 -18 40 -66 40 -286 l0
-214 76 0 76 0 -4 238 c-3 220 -5 240 -25 277 -44 83 -104 115 -215 115 -46
-1 -93 -8 -127 -20z"/>
<path d="M2513 1640 c-24 -10 -27 -27 -14 -84 6 -29 7 -30 66 -27 55 2 63 0
87 -26 49 -51 59 -180 21 -276 -18 -44 -66 -87 -97 -87 -21 0 -29 19 -97 248
l-75 247 -73 3 c-67 3 -73 1 -69 -15 3 -10 45 -150 93 -310 l88 -293 91 0
c109 0 170 24 227 87 59 66 81 139 77 259 -3 88 -7 108 -33 159 -20 40 -45 69
-73 90 -38 26 -53 30 -120 32 -42 2 -87 -2 -99 -7z"/>
<path d="M2981 1630 c-29 -11 -64 -26 -77 -35 -22 -14 -23 -16 -8 -60 9 -25
20 -47 24 -50 4 -3 32 6 62 20 56 26 143 34 178 15 33 -18 40 -66 40 -286 l0
-214 76 0 76 0 -4 238 c-3 220 -5 240 -25 277 -44 83 -104 115 -215 115 -46
-1 -93 -8 -127 -20z"/>
<path d="M4285 1636 c-35 -11 -123 -52 -134 -62 -6 -6 42 -105 48 -101 84 47
131 62 199 62 71 0 75 -1 103 -33 20 -22 29 -43 29 -66 l0 -34 -127 -3 c-112
-4 -134 -7 -178 -29 -58 -29 -91 -74 -100 -134 -13 -87 32 -172 110 -207 46
-21 145 -25 194 -8 31 11 32 14 26 48 -10 60 -16 73 -30 67 -42 -16 -85 -17
-113 -2 -32 17 -42 34 -42 72 0 64 43 84 178 84 l82 0 0 -135 0 -135 76 0 76
0 -4 233 c-3 215 -5 235 -25 272 -47 89 -118 125 -243 124 -47 0 -103 -6 -125
-13z"/>
<path d="M4856 1626 c-32 -14 -63 -29 -69 -35 -10 -10 8 -97 23 -106 3 -2 28
7 55 20 36 19 64 25 109 25 115 0 165 -61 166 -200 0 -86 -25 -149 -72 -184
-37 -26 -125 -25 -198 3 -30 11 -58 17 -62 13 -4 -4 -13 -29 -20 -55 -11 -41
-10 -49 2 -58 36 -22 130 -42 207 -42 70 0 90 4 140 29 65 33 115 90 135 157
7 23 13 89 13 147 -1 87 -4 113 -23 155 -50 108 -114 147 -252 152 -83 3 -102
1 -154 -21z"/>
<path d="M5583 1640 c-24 -10 -27 -27 -14 -84 6 -29 7 -30 66 -27 55 2 63 0
87 -26 49 -51 59 -180 21 -276 -18 -44 -66 -87 -97 -87 -21 0 -29 19 -97 248
l-75 247 -73 3 c-67 3 -73 1 -69 -15 3 -10 45 -150 93 -310 l88 -293 91 0
c109 0 170 24 227 87 59 66 81 139 77 259 -3 88 -7 108 -33 159 -20 40 -45 69
-73 90 -38 26 -53 30 -120 32 -42 2 -87 -2 -99 -7z"/>
<path d="M6346 1626 c-32 -14 -63 -29 -69 -35 -10 -10 8 -97 23 -106 3 -2 28
7 55 20 36 19 64 25 109 25 115 0 165 -61 166 -200 0 -86 -25 -149 -72 -184
-37 -26 -125 -25 -198 3 -30 11 -58 17 -62 13 -4 -4 -13 -29 -20 -55 -11 -41
-10 -49 2 -58 36 -22 130 -42 207 -42 70 0 90 4 140 29 65 33 115 90 135 157
7 23 13 89 13 147 -1 87 -4 113 -23 155 -50 108 -114 147 -252 152 -83 3 -102
1 -154 -21z"/>
<path d="M7015 1636 c-35 -11 -123 -52 -134 -62 -6 -6 42 -105 48 -101 84 47
131 62 199 62 71 0 75 -1 103 -33 20 -22 29 -43 29 -66 l0 -34 -127 -3 c-112
-4 -134 -7 -178 -29 -58 -29 -91 -74 -100 -134 -13 -87 32 -172 110 -207 46
-21 145 -25 194 -8 31 11 32 14 26 48 -10 60 -16 73 -30 67 -42 -16 -85 -17
-113 -2 -32 17 -42 34 -42 72 0 64 43 84 178 84 l82 0 0 -135 0 -135 76 0 76
0 -4 233 c-3 215 -5 235 -25 272 -47 89 -118 125 -243 124 -47 0 -103 -6 -125
-13z"/>
<path d="M7571 1630 c-29 -11 -64 -26 -77 -35 -22 -14 -23 -16 -8 -60 9 -25
20 -47 24 -50 4 -3 32 6 62 20 56 26 143 34 178 15 33 -18 40 -66 40 -286 l0
-214 76 0 76 0 -4 238 c-3 220 -5 240 -25 277 -44 83 -104 115 -215 115 -46
-1 -93 -8 -127 -20z"/>
<path d="M3480 1403 c1 -294 10 -328 100 -373 82 -41 181 -31 255 26 39 29 45
31 45 15 0 -45 9 -51 76 -51 l64 0 0 310 0 310 -75 0 -75 0 0 -216 0 -216 -33
-33 c-59 -59 -148 -67 -187 -17 -19 23 -20 41 -20 253 l0 229 -75 0 -75 0 0
-237z"/>
<path d="M6020 1330 l0 -310 75 0 75 0 0 310 0 310 -75 0 -75 0 0 -310z"/>
</g>
</svg>
