<?xml version="1.0" standalone="no"?>
<!DOCTYPE svg PUBLIC "-//W3C//DTD SVG 20010904//EN"
 "http://www.w3.org/TR/2001/REC-SVG-20010904/DTD/svg10.dtd">
<svg version="1.0" xmlns="http://www.w3.org/2000/svg"
 width="908.000000pt" height="1013.000000pt" viewBox="0 0 908.000000 1013.000000"
 preserveAspectRatio="xMidYMid meet">

<g transform="translate(0.000000,1013.000000) scale(0.100000,-0.100000)"
fill="#000000" stroke="none">
<path d="M3847 8746 c-83 -23 -157 -98 -179 -182 -11 -40 -14 -42 -72 -58
-146 -40 -317 -145 -437 -269 -144 -147 -211 -305 -237 -552 -6 -55 -20 -132
-33 -172 -18 -58 -26 -73 -46 -78 -61 -15 -83 -87 -42 -139 20 -25 24 -26 126
-26 96 0 105 -1 98 -17 -49 -114 -78 -223 -90 -332 -5 -44 -4 -62 3 -57 6 4
42 57 81 119 65 105 137 186 229 260 l34 27 298 0 299 0 58 -35 c32 -19 90
-47 128 -62 61 -24 84 -27 185 -27 112 -1 117 0 196 37 50 23 97 37 121 37 55
0 135 -43 168 -90 14 -21 43 -49 63 -63 59 -38 91 -57 98 -57 13 0 -7 83 -40
171 l-33 89 102 0 c93 0 103 2 122 23 30 33 34 54 18 93 -9 23 -24 38 -45 45
-22 8 -32 20 -39 47 -28 105 -41 172 -41 220 0 124 -54 294 -132 414 -115 179
-356 349 -563 399 -28 6 -56 13 -62 15 -7 2 -13 14 -13 26 0 38 -57 126 -99
154 -42 27 -121 54 -155 53 -12 0 -43 -6 -69 -13z"/>
<path d="M5839 6221 c-26 -26 -29 -36 -29 -90 l0 -61 -136 0 -136 0 -29 -29
c-28 -28 -29 -34 -29 -115 l0 -86 -325 0 -325 0 -32 -29 -33 -29 -3 -151 c-2
-83 -7 -151 -11 -151 -5 0 -66 9 -137 20 -71 10 -165 22 -209 26 l-80 6 -135
-465 -135 -466 -8 97 c-4 53 -16 238 -25 409 l-17 313 55 27 c72 36 98 83 77
136 -39 92 -215 134 -346 81 -53 -21 -101 -76 -101 -114 0 -43 50 -95 111
-115 46 -16 50 -19 45 -43 -3 -15 -24 -204 -47 -420 -23 -215 -43 -391 -44
-390 -2 2 -69 215 -150 473 -81 259 -148 472 -150 474 -7 7 -289 -30 -420 -55
-355 -68 -614 -174 -794 -325 -271 -228 -499 -726 -596 -1302 -38 -229 -49
-366 -49 -637 l-1 -255 420 0 420 0 6 265 c5 206 11 291 28 384 40 226 92 381
189 571 l67 130 5 -675 5 -675 1013 -3 1012 -2 0 -293 c0 -258 2 -296 18 -327
9 -19 28 -40 42 -47 20 -10 311 -13 1353 -13 1444 0 1369 -3 1395 55 9 20 12
432 12 1740 l0 1714 -24 28 -24 28 -331 3 -331 3 0 75 c0 80 -16 126 -49 144
-11 5 -78 10 -150 10 l-131 0 0 46 c0 57 -23 108 -56 123 -17 7 -121 11 -320
11 l-296 0 -29 -29z m-359 -759 c0 -96 10 -121 57 -141 21 -8 196 -11 651 -9
l624 3 29 33 c27 30 29 38 29 117 l0 85 215 0 c229 0 261 -6 285 -49 7 -13 10
-488 10 -1451 l0 -1431 -24 -24 c-13 -13 -39 -26 -57 -30 -19 -3 -539 -4
-1156 -3 l-1123 3 -27 28 -28 27 0 1434 c0 1420 0 1434 20 1456 11 12 29 26
40 31 11 4 118 8 238 8 l217 1 0 -88z"/>
<path d="M5245 4967 c-3 -7 -4 -129 -3 -272 l3 -260 269 -3 c209 -2 271 1 278
10 9 15 11 498 2 522 -5 14 -39 16 -275 16 -208 0 -271 -3 -274 -13z m495
-262 l0 -225 -220 0 -220 0 0 225 0 225 220 0 220 0 0 -225z"/>
<path d="M5900 4490 c-12 -7 -12 -13 -4 -27 10 -17 49 -18 626 -21 538 -2 617
0 628 13 10 12 10 18 0 30 -11 13 -92 15 -624 15 -371 0 -617 -4 -626 -10z"/>
<path d="M5252 4278 c-9 -9 -12 -82 -12 -268 0 -186 3 -259 12 -268 17 -17
519 -17 536 0 17 17 17 519 0 536 -17 17 -519 17 -536 0z m488 -268 l0 -220
-220 0 -220 0 0 220 0 220 220 0 220 0 0 -220z"/>
<path d="M5893 3774 c-3 -8 -1 -20 4 -25 5 -5 253 -8 634 -7 616 3 624 3 624
23 0 20 -8 20 -628 23 -563 2 -628 1 -634 -14z"/>
<path d="M5245 3577 c-3 -7 -4 -129 -3 -272 l3 -260 269 -3 c209 -2 271 1 278
10 9 15 11 498 2 522 -5 14 -39 16 -275 16 -208 0 -271 -3 -274 -13z m495
-262 l0 -225 -220 0 -220 0 0 225 0 225 220 0 220 0 0 -225z"/>
<path d="M5893 3084 c-3 -8 -1 -20 4 -25 5 -5 253 -8 634 -7 616 3 624 3 624
23 0 20 -8 20 -628 23 -563 2 -628 1 -634 -14z"/>
<path d="M8174 1687 c-3 -8 -4 -41 -2 -73 l3 -59 50 0 50 0 0 70 0 70 -48 3
c-34 2 -49 -1 -53 -11z"/>
<path d="M8170 1470 l0 -40 -140 0 -140 0 0 -45 0 -45 193 2 192 3 3 83 3 82
-56 0 -55 0 0 -40z"/>
<path d="M2000 1446 c0 -33 6 -52 24 -73 24 -28 24 -28 170 -31 l146 -4 0 46
0 45 -117 3 -118 3 -3 28 c-3 25 -6 27 -53 27 l-49 0 0 -44z"/>
<path d="M1030 1201 c0 -137 -3 -257 -6 -266 -15 -37 -90 -56 -137 -34 -41 19
-47 45 -50 219 l-2 165 -55 0 -55 0 -3 -135 c-5 -223 10 -279 88 -324 28 -17
52 -21 125 -21 98 0 139 15 177 66 32 42 38 93 38 342 l0 237 -60 0 -60 0 0
-249z"/>
<path d="M1300 1385 l0 -45 193 2 192 3 3 43 3 42 -195 0 -196 0 0 -45z"/>
<path d="M2380 1385 l0 -45 193 2 192 3 3 43 3 42 -195 0 -196 0 0 -45z"/>
<path d="M6162 1308 c-7 -7 -44 -13 -95 -13 -67 -1 -93 -6 -139 -27 -32 -15
-58 -31 -58 -37 0 -9 19 -58 27 -70 1 -2 23 7 48 19 110 53 215 29 215 -51 l0
-27 -107 -4 c-158 -5 -203 -39 -203 -153 0 -53 3 -60 38 -95 43 -44 105 -59
175 -43 44 9 44 11 32 69 -4 19 -10 21 -52 17 -60 -6 -86 17 -81 69 2 28 9 35
38 45 19 7 63 12 98 12 l62 1 0 -105 0 -105 55 0 55 0 0 175 c0 158 -2 180
-21 216 l-20 40 30 35 c17 19 31 37 31 39 0 11 -117 4 -128 -7z"/>
<path d="M1392 1286 c-61 -20 -116 -61 -138 -102 l-19 -36 37 -30 38 -30 -20
-25 c-16 -20 -20 -41 -20 -94 0 -67 -1 -69 -25 -69 -23 0 -25 -4 -25 -45 l0
-45 54 0 c38 0 60 6 78 20 24 18 26 27 30 121 3 90 6 103 26 119 l22 18 -37
31 c-36 30 -36 31 -18 51 27 30 88 44 131 30 58 -20 64 -43 64 -269 l0 -200
-32 18 c-18 11 -48 22 -66 26 -40 8 -118 -9 -150 -34 -23 -16 -23 -20 -11 -59
7 -23 14 -42 16 -42 2 0 21 9 43 20 50 26 115 26 163 0 24 -13 56 -20 92 -20
l55 0 0 257 c0 240 -1 259 -21 300 -39 81 -164 122 -267 89z"/>
<path d="M2435 1283 c-71 -37 -116 -108 -130 -204 -9 -59 9 -148 38 -191 47
-69 139 -103 218 -79 33 10 39 16 34 32 -3 10 -8 28 -11 40 -5 18 -11 20 -39
15 -79 -15 -125 39 -125 147 0 68 14 111 45 137 13 11 22 10 53 -4 37 -17 40
-17 74 4 33 19 37 19 52 5 13 -14 16 -44 16 -196 l0 -179 55 0 55 0 0 193 c0
221 -7 243 -82 277 l-42 19 -47 -27 -47 -26 -41 27 c-22 15 -42 27 -43 27 -2
-1 -16 -8 -33 -17z"/>
<path d="M3035 1293 c-32 -8 -38 -19 -31 -58 7 -36 8 -36 45 -30 29 5 43 2 64
-15 63 -50 61 -197 -3 -262 -51 -50 -61 -41 -98 85 -18 61 -45 149 -58 195
l-25 82 -55 0 c-30 0 -54 -2 -54 -6 0 -3 32 -109 70 -235 39 -127 70 -233 70
-236 0 -3 38 -3 84 -2 75 4 89 7 127 34 104 73 132 262 56 376 -38 58 -121 89
-192 72z"/>
<path d="M3425 1291 c-43 -11 -102 -37 -108 -47 -3 -5 2 -26 10 -46 l15 -37
36 18 c46 23 97 33 128 25 45 -12 54 -48 54 -229 l0 -165 55 0 55 0 0 178 c0
165 -2 181 -22 222 -13 25 -37 53 -55 63 -36 21 -123 30 -168 18z"/>
<path d="M4937 1289 c-42 -10 -113 -44 -122 -59 -4 -7 16 -61 30 -78 1 -1 25
9 53 24 67 35 148 38 189 8 83 -60 84 -217 3 -272 -28 -19 -44 -23 -83 -19
-58 5 -78 23 -80 68 -2 33 -1 34 41 37 l42 3 0 45 0 44 -65 0 c-35 0 -75 -5
-89 -11 -80 -37 -49 -206 47 -256 42 -21 150 -28 207 -13 57 15 124 80 139
135 14 51 14 148 0 200 -17 61 -93 130 -158 144 -60 13 -100 13 -154 0z"/>
<path d="M5470 1285 c-54 -17 -114 -65 -136 -107 -15 -30 -15 -31 16 -57 l31
-26 -21 -40 c-16 -32 -20 -58 -20 -142 l0 -103 60 0 60 0 0 118 c0 112 1 120
24 141 l24 23 -34 30 c-41 36 -35 48 31 74 36 13 50 14 79 4 62 -20 66 -34 66
-222 l0 -168 56 0 55 0 -3 188 c-3 177 -4 189 -26 220 -48 66 -169 97 -262 67z"/>
<path d="M6510 1285 c-54 -17 -114 -65 -136 -107 -15 -30 -15 -31 16 -57 l31
-26 -21 -40 c-18 -34 -21 -52 -17 -120 5 -70 8 -82 32 -102 21 -18 38 -23 86
-23 l59 0 0 45 c0 43 -1 45 -30 45 l-30 0 0 73 c0 65 3 76 24 96 l24 23 -34
30 c-41 36 -35 48 31 74 36 13 50 14 79 4 62 -20 66 -34 66 -222 l0 -168 60 0
60 0 0 148 c-1 160 -10 220 -41 264 -45 62 -169 93 -259 63z"/>
<path d="M6965 1291 c-43 -11 -102 -37 -108 -47 -3 -5 2 -26 10 -46 l15 -37
36 18 c46 23 97 33 128 25 45 -12 54 -48 54 -229 l0 -165 55 0 55 0 0 178 c0
165 -2 181 -22 222 -13 25 -37 53 -55 63 -36 21 -123 30 -168 18z"/>
<path d="M8068 1286 c-21 -7 -49 -21 -63 -30 -32 -21 -34 -21 -45 9 -8 22 -16
25 -55 25 l-45 0 0 -240 0 -240 55 0 55 0 0 164 0 164 30 26 c40 33 103 51
130 36 35 -19 40 -45 40 -219 l0 -171 55 0 55 0 0 186 c0 205 -7 236 -60 274
-37 27 -105 34 -152 16z"/>
<path d="M1797 1284 c-10 -11 -8 -302 3 -348 11 -49 37 -85 81 -111 49 -29
199 -29 249 1 78 45 93 101 88 324 l-3 135 -55 0 -55 0 -6 -180 c-3 -99 -6
-181 -7 -182 -1 -1 -15 -9 -32 -18 -52 -27 -117 -14 -139 29 -6 12 -12 90 -14
186 l-2 165 -50 3 c-28 2 -54 0 -58 -4z"/>
<path d="M3774 1276 c-3 -9 -4 -95 -2 -193 3 -156 5 -182 23 -212 49 -84 185
-96 267 -24 15 14 18 13 24 -11 6 -24 11 -26 55 -26 l49 0 0 240 0 240 -55 0
-55 0 0 -163 c0 -131 -3 -167 -16 -185 -33 -47 -110 -67 -150 -38 -17 13 -19
31 -24 198 l-5 183 -53 3 c-40 2 -54 -1 -58 -12z"/>
<path d="M4304 1276 c-3 -9 -4 -95 -2 -193 3 -156 5 -182 23 -212 49 -84 185
-96 267 -24 15 14 18 13 24 -11 6 -24 11 -26 55 -26 l49 0 0 240 0 240 -55 0
-55 0 0 -163 c0 -131 -3 -167 -16 -185 -33 -47 -110 -67 -150 -38 -17 13 -19
31 -24 198 l-5 183 -53 3 c-40 2 -54 -1 -58 -12z"/>
<path d="M7324 1276 c-3 -9 -4 -95 -2 -193 3 -156 5 -182 23 -212 49 -84 185
-96 267 -24 15 14 18 13 24 -11 6 -24 11 -26 55 -26 l49 0 0 240 0 240 -55 0
-55 0 0 -163 c0 -131 -3 -167 -16 -185 -33 -47 -110 -67 -150 -38 -17 13 -19
31 -24 198 l-5 183 -53 3 c-40 2 -54 -1 -58 -12z"/>
</g>
</svg>
