<?xml version="1.0" standalone="no"?>
<!DOCTYPE svg PUBLIC "-//W3C//DTD SVG 20010904//EN"
 "http://www.w3.org/TR/2001/REC-SVG-20010904/DTD/svg10.dtd">
<svg version="1.0" xmlns="http://www.w3.org/2000/svg"
 width="883.000000pt" height="986.000000pt" viewBox="0 0 883.000000 986.000000"
 preserveAspectRatio="xMidYMid meet">

<g transform="translate(0.000000,986.000000) scale(0.100000,-0.100000)"
fill="#000000" stroke="none">
<path d="M4680 1750 l0 -60 250 0 250 0 0 60 0 60 -250 0 -250 0 0 -60z"/>
<path d="M3555 1616 c-35 -11 -123 -52 -134 -62 -6 -6 42 -105 48 -101 84 47
131 62 199 62 71 0 75 -1 103 -33 20 -22 29 -43 29 -66 l0 -34 -127 -3 c-112
-4 -134 -7 -178 -29 -58 -29 -91 -74 -100 -134 -13 -87 32 -172 110 -207 46
-21 145 -25 194 -8 31 11 32 14 26 48 -10 60 -16 73 -30 67 -42 -16 -85 -17
-113 -2 -32 17 -42 34 -42 72 0 64 43 84 178 84 l82 0 0 -135 0 -135 76 0 76
0 -4 233 c-3 215 -5 235 -25 272 -47 89 -118 125 -243 124 -47 0 -103 -6 -125
-13z"/>
<path d="M4121 1610 c-29 -11 -64 -26 -77 -35 -22 -14 -23 -16 -8 -60 9 -25
20 -47 24 -50 4 -3 32 6 62 20 56 26 143 34 178 15 33 -18 40 -66 40 -286 l0
-214 76 0 76 0 -4 238 c-3 220 -5 240 -25 277 -44 83 -104 115 -215 115 -46
-1 -93 -8 -127 -20z"/>
<path d="M4774 1609 c-63 -24 -135 -86 -159 -135 l-17 -36 41 -35 41 -35 -22
-31 c-21 -29 -23 -45 -26 -184 l-3 -153 75 0 76 0 0 154 0 154 30 29 31 30
-40 36 c-47 43 -46 59 10 87 46 24 119 26 160 4 52 -27 59 -60 59 -289 l0
-205 76 0 76 0 -4 223 c-3 183 -7 229 -22 262 -24 55 -62 93 -121 121 -66 31
-185 33 -261 3z"/>
<path d="M5400 1621 c-35 -11 -112 -50 -132 -68 -15 -13 -15 -18 4 -61 11 -26
22 -48 23 -50 1 -1 32 14 69 33 58 30 77 35 134 35 80 0 120 -20 145 -73 20
-42 23 -151 5 -210 -14 -48 -67 -107 -96 -107 -22 0 -21 -3 -56 135 -22 86
-47 105 -137 105 l-70 0 3 -57 c3 -58 3 -58 37 -63 l35 -5 29 -117 29 -118 87
0 c105 0 148 18 209 84 61 66 85 125 90 222 8 149 -43 249 -153 300 -41 20
-66 24 -140 23 -49 0 -101 -4 -115 -8z"/>
</g>
</svg>
